<svg width="68" height="34" viewBox="0 0 68 34" fill="none" xmlns="http://www.w3.org/2000/svg"><path d="M54.99.034c-5.138.387-9.511 2.958-12.098 7.114-.65 1.046-1.393 2.68-1.758 3.867-.56 1.815-.81 3.445-.854 5.537-.068 3.453.547 6.454 1.873 9.145 1.197 2.428 2.819 4.304 4.955 5.732 2.12 1.421 4.456 2.233 7.168 2.49 1.693.161 3.733.078 5.391-.214 2.723-.483 5.067-1.627 7.064-3.445.375-.343 1.197-1.212 1.269-1.345.014-.026-.44-.552-1.094-1.266-1.297-1.425-1.325-1.447-1.786-1.447-.254 0-.314.014-.518.115a3.037 3.037 0 0 0-.518.375c-1.394 1.256-2.93 2.05-4.606 2.374-1.147.224-2.858.318-4.005.22-3.684-.318-6.628-2.341-8.29-5.696-.714-1.447-1.11-2.864-1.329-4.747-.09-.768-.09-2.94 0-3.726.175-1.573.508-2.919 1.015-4.116 1.536-3.633 4.355-5.772 8.246-6.252.25-.029.776-.047 1.447-.047 1.462.004 2.237.101 3.284.419 1.258.378 2.316.905 3.656 1.821.59.405.846.502 1.26.476.33-.02.58-.14.808-.378.172-.177 1.965-2.716 1.958-2.774-.007-.09-1.15-1.04-1.804-1.497A16.374 16.374 0 0 0 62.19.915C60.88.435 59.482.146 57.902.03c-.586-.044-2.318-.04-2.912.003ZM8.827 33.614h6.764c6.928 0 7.156-.003 8.314-.147 2.966-.364 5.753-1.504 7.986-3.261 3.033-2.384 5.034-5.988 5.66-10.19.15-1.01.196-1.696.196-2.977.004-1.544-.086-2.586-.322-3.823-.864-4.52-3.326-8.2-6.988-10.447a19.638 19.638 0 0 0-2.334-1.176C26.378.907 24.637.525 22.602.391c-.357-.02-3.02-.036-7.171-.036H8.827v33.26Zm14.095-28.77c1.505.213 2.52.523 3.699 1.125 1.168.595 2.265 1.483 3.048 2.468 1.693 2.12 2.597 5.108 2.597 8.567 0 3.917-1.143 7.16-3.28 9.31a9.332 9.332 0 0 1-2.455 1.765 9.95 9.95 0 0 1-2.622.898c-1.236.245-1.869.274-6.21.274h-3.477V4.753l4.138.014c3.644.01 4.184.022 4.563.076ZM.067 1.39h4.58l-2.21 1.735C1.22 4.077.192 4.9.149 4.947c-.075.083-.082.126-.082.487v.393h6.432v-.974l-2.302-.008-2.297-.01 2.25-1.768c1.723-1.353 2.263-1.796 2.302-1.883A1.69 1.69 0 0 0 6.498.74V.415H.068l-.001.975Zm3.215 7.9h.369c.5 0 .49.014.49-.624v-.494h1.203l.093.209c.168.372.218.638.218 1.107 0 .722-.175 1.19-.604 1.627-.44.451-1.018.664-1.793.664C1.714 11.779.76 10.71.956 9.21c.05-.39.14-.652.344-1.017.26-.462.235-.552-.226-.833-.271-.17-.278-.166-.528.202a3.17 3.17 0 0 0-.48 1.187c-.067.328-.074.458-.06.956.022.674.09.974.325 1.479.294.624.75 1.086 1.38 1.385.535.26.775.306 1.554.306.59 0 .718-.01.964-.079a3.21 3.21 0 0 0 1.59-1.024c.23-.286.511-.859.608-1.234.271-1.082.107-2.301-.422-3.131l-.132-.21h-2.59V9.29ZM.067 15.314h6.432v-1.118H.066v1.118Zm3.984 1.314c-.415.104-.765.396-.99.832-.071.138-.222.52-.332.848-.232.679-.372.967-.54 1.118-.232.206-.56.228-.854.062-.4-.228-.56-.935-.34-1.504.063-.15.136-.297.219-.437.229-.382.193-.48-.254-.7l-.293-.144-.14.162c-.17.199-.364.588-.45.902-.092.343-.089 1.237.004 1.515.225.664.63 1.09 1.208 1.266.203.062.314.076.647.065.382-.014.418-.021.675-.151a1.54 1.54 0 0 0 .715-.725c.06-.123.203-.512.321-.87.118-.357.25-.714.297-.797.121-.206.346-.404.5-.433.236-.043.546.008.725.12.34.208.497.598.464 1.146-.02.361-.121.625-.374 1.003-.222.329-.261.455-.18.581.062.09.583.43.637.411.082-.029.375-.44.518-.732.232-.476.307-.808.31-1.352.004-.51-.05-.765-.231-1.151-.15-.318-.533-.707-.851-.863-.414-.205-.996-.277-1.41-.172ZM.067 25.739h6.432v-4.076h-.894v2.958h-1.93v-2.38h-.857v2.38H.96v-2.958H.067v4.076Zm2.769 1.299a3.19 3.19 0 0 0-1.108.325 2.71 2.71 0 0 0-1.322 1.316c-.307.628-.314.682-.332 2.479l-.01 1.58h6.441l-.014-1.527c-.018-1.493-.018-1.529-.107-1.864-.225-.84-.679-1.476-1.34-1.873-.597-.357-1.45-.526-2.208-.436Zm1.143 1.18c.625.133 1.144.515 1.39 1.024.19.393.236.696.236 1.605v.772H.96v-.858c0-.942.025-1.112.215-1.512.425-.876 1.572-1.298 2.804-1.031Z" fill="#fff"/><path d="M19.685 19.327h1v-3.708h-1v3.708Zm.5-4.116a.523.523 0 1 0 0-1.044.523.523 0 1 0 0 1.044Zm1.449 4.116h1V17.2c0-.48.285-.813.734-.813.448 0 .675.277.675.761v2.179h1v-2.39c0-.868-.46-1.387-1.275-1.387-.565 0-.952.27-1.147.73h-.02v-.66h-.967v3.707Z" fill="#fff"/></svg>